<svg xmlns="http://www.w3.org/2000/svg" width="28" height="30" viewBox="0 0 28 30">
  <g id="组_24" data-name="组 24" transform="translate(-256 -175)">
    <g id="椭圆_9" data-name="椭圆 9" transform="translate(256 178)" fill="none" stroke="#36f" stroke-width="1">
      <ellipse cx="14" cy="13.5" rx="14" ry="13.5" stroke="none"/>
      <ellipse cx="14" cy="13.5" rx="13.5" ry="13" fill="none"/>
    </g>
    <g id="矩形_2" data-name="矩形 2" transform="translate(267 175)" fill="none" stroke="#36f" stroke-width="1">
      <rect width="6" height="2" stroke="none"/>
      <rect x="0.5" y="0.5" width="5" height="1" fill="none"/>
    </g>
    <g id="椭圆_10" data-name="椭圆 10" transform="translate(268.479 190.031)" fill="none">
      <path d="M1.481,0a1.461,1.461,0,0,1,.577.118A1.483,1.483,0,0,1,2.529.44a1.511,1.511,0,0,1,0,2.122,1.483,1.483,0,0,1-.471.321,1.47,1.47,0,0,1-1.153,0,1.483,1.483,0,0,1-.471-.322A1.511,1.511,0,0,1,.434.44,1.483,1.483,0,0,1,.9.118,1.461,1.461,0,0,1,1.481,0Z" stroke="none"/>
      <path d="M 1.481067538261414 2.000444889068604 C 1.549144864082336 2.000451564788818 1.614051103591919 1.986438989639282 1.67311704158783 1.961107850074768 C 1.732184290885925 1.935775876045227 1.78541111946106 1.899125218391418 1.830128312110901 1.853856682777405 C 1.874846458435059 1.808587789535522 1.911054015159607 1.754701018333435 1.936082363128662 1.694898366928101 C 1.961111068725586 1.635095238685608 1.974959850311279 1.569376587867737 1.974959850311279 1.500444889068604 C 1.974959850311279 1.431513071060181 1.961111068725586 1.36579442024231 1.936082363128662 1.305991172790527 C 1.911054015159607 1.246188879013062 1.874846458435059 1.192302107810974 1.830128312110901 1.147032737731934 C 1.78541111946106 1.101764440536499 1.732184290885925 1.06511378288269 1.67311704158783 1.039782166481018 C 1.614051103591919 1.014450907707214 1.549144864082336 1.000438094139099 1.481067538261414 1.000444889068604 C 1.412991881370544 1.000451564788818 1.348091006278992 1.014476537704468 1.289032578468323 1.039817094802856 C 1.229975461959839 1.065157055854797 1.17676043510437 1.101812362670898 1.132054686546326 1.147081732749939 C 1.087350010871887 1.192350029945374 1.051153898239136 1.246232032775879 1.026134371757507 1.306026339530945 C 1.001115083694458 1.365819931030273 0.9872715473175049 1.4315265417099 0.9872715473175049 1.500444769859314 C 0.9872715473175049 1.569362998008728 1.001115083694458 1.635069489479065 1.026134371757507 1.694863438606262 C 1.051153898239136 1.754657506942749 1.087350010871887 1.808539628982544 1.132054686546326 1.853808045387268 C 1.17676043510437 1.89907705783844 1.229975461959839 1.935732483863831 1.289032578468323 1.961072683334351 C 1.348091006278992 1.986413359642029 1.412991881370544 2.00043797492981 1.481067538261414 2.000444889068604 M 1.481067538261414 3.000444889068604 C 1.276518106460571 3.000384092330933 1.081666707992554 2.958356380462646 0.9044528007507324 2.882410049438477 C 0.7272512316703796 2.806468486785889 0.567682147026062 2.69661283493042 0.4336820542812347 2.560886144638062 C 0.2996890246868134 2.425166606903076 0.1912596672773361 2.263576745986938 0.1163296550512314 2.084155797958374 C 0.04140188544988632 1.904740929603577 -3.050862687814515e-05 1.707491517066956 -3.050862687814515e-05 1.500444769859314 C -3.050862687814515e-05 1.293398022651672 0.04140188544988632 1.09614884853363 0.1163296401500702 0.9167336225509644 C 0.1912596523761749 0.7373132705688477 0.2996890246868134 0.5757231116294861 0.4336820244789124 0.4400036334991455 C 0.567682147026062 0.3042768836021423 0.7272512316703796 0.1944207698106766 0.9044528007507324 0.1184797212481499 C 1.081666707992554 0.04253331571817398 1.276518106460571 0.0005056496011093259 1.481067538261414 0.0004449039697647095 C 1.685633301734924 0.000384153303457424 1.880531311035156 0.04230271652340889 2.057813882827759 0.1181640923023224 C 2.235108852386475 0.1940308213233948 2.39478325843811 0.3038440644741058 2.528887510299683 0.4395636022090912 C 2.662998676300049 0.575290322303772 2.771534442901611 0.7369233369827271 2.846543073654175 0.9164180755615234 C 2.921554088592529 1.095918297767639 2.963034629821777 1.29327654838562 2.963034629821777 1.500444889068604 C 2.963034629821777 1.707613110542297 2.921554088592529 1.904971480369568 2.846543073654175 2.084471464157104 C 2.771534442901611 2.26396656036377 2.662998676300049 2.425599336624146 2.528887510299683 2.561326265335083 C 2.39478325843811 2.697045564651489 2.235108852386475 2.806859016418457 2.057813882827759 2.882725477218628 C 1.880531311035156 2.958586931228638 1.685633301734924 3.000505447387695 1.481067538261414 3.000444889068604 Z" stroke="none" fill="#36f"/>
    </g>
    <line id="直线_23" data-name="直线 23" x2="8.273" y2="0.132" transform="translate(261.227 191.368)" fill="none" stroke="#36f" stroke-width="1"/>
    <line id="直线_24" data-name="直线 24" y2="3" transform="translate(270 175.5)" fill="none" stroke="#36f" stroke-width="3"/>
  </g>
</svg>
