<svg xmlns="http://www.w3.org/2000/svg" width="32.846" height="37.181" viewBox="0 0 32.846 37.181">
  <g id="组_734" data-name="组 734" transform="translate(-28.5 -799.5)">
    <g id="组_733" data-name="组 733" transform="translate(0.298 515.972)">
      <g id="组_101" data-name="组 101" transform="translate(33.44 283.528)">
        <g id="路径_70" data-name="路径 70" transform="translate(0 0.004)" fill="none">
          <path d="M.907.676A4.258,4.258,0,0,1,3.524,0H18.315l7.542,7.634V29.6h-.81V8L17.559.808,3.524.766A3.012,3.012,0,0,0,1.407,1.3a3.368,3.368,0,0,0-.5,2.211V29.6a2.614,2.614,0,0,0,.886,1.762,4.361,4.361,0,0,0,2.293.439H8.947v.948H3.524a4.665,4.665,0,0,1-2.617-.788A3.686,3.686,0,0,1,0,29.6V3.134A3.878,3.878,0,0,1,.907.676Z" stroke="none"/>
          <path d="M 3.305086135864258 -0.0040283203125 C 3.442306518554688 -0.0040283203125 3.524147033691406 0.001094818115234375 3.524147033691406 0.001094818115234375 L 18.3151969909668 0.001094818115234375 L 25.85675621032715 7.634992599487305 L 25.85675621032715 29.6038932800293 L 25.0464973449707 29.6038932800293 L 25.0464973449707 8.003412246704102 L 17.5594482421875 0.8081035614013672 L 3.524147033691406 0.76611328125 C 3.524147033691406 0.76611328125 2.06151008605957 0.6118736267089844 1.407197952270508 1.29736328125 C 0.7528762817382812 1.982852935791016 0.9068870544433594 3.508052825927734 0.9068870544433594 3.508052825927734 L 0.9068870544433594 29.6038932800293 C 0.9068870544433594 29.6038932800293 0.9977378845214844 30.81521224975586 1.792507171630859 31.3654727935791 C 2.587289810180664 31.91574287414551 4.085987091064453 31.80493354797363 4.085987091064453 31.80493354797363 L 8.94677734375 31.80493354797363 L 8.94677734375 32.75298309326172 L 3.524147033691406 32.75298309326172 C 3.524147033691406 32.75298309326172 1.787918090820312 32.75191116333008 0.9068870544433594 31.96464347839355 C 0.02584648132324219 31.17737197875977 -1.9073486328125e-06 29.6038932800293 -1.9073486328125e-06 29.6038932800293 L -1.9073486328125e-06 3.133613586425781 C -1.9073486328125e-06 3.133613586425781 0.02584648132324219 1.45875358581543 0.9068870544433594 0.6756229400634766 C 1.596590042114258 0.06255340576171875 2.810428619384766 -0.0040283203125 3.305086135864258 -0.0040283203125 Z" stroke="none" fill="#36f"/>
        </g>
        <g id="路径_69" data-name="路径 69" transform="translate(21.628 12.295) rotate(-135)" fill="none">
          <path d="M5.554,0l5.882,5.882L0,5.554Z" stroke="none"/>
          <path d="M 5.553806781768799 1.4142165184021 L 2.347249031066895 4.620774745941162 L 8.949901580810547 4.810316562652588 L 5.553806781768799 1.4142165184021 M 5.553807258605957 -3.814697265625e-06 L 11.43589782714844 5.882095813751221 L -2.86102294921875e-06 5.553805828094482 L 5.553807258605957 -3.814697265625e-06 Z" stroke="none" fill="#36f"/>
        </g>
        <g id="组_26" data-name="组 26" transform="translate(5.022 11.285)">
          <line id="直线_25" data-name="直线 25" x2="6.783" transform="translate(0.558 15.514)" fill="none" stroke="#36f" stroke-width="1"/>
          <line id="直线_26" data-name="直线 26" x2="15.917" transform="translate(0.558 10.343)" fill="none" stroke="#ff9c00" stroke-width="1"/>
          <line id="直线_27" data-name="直线 27" x2="15.402" y2="0.075" transform="translate(0.558 5.096)" fill="none" stroke="#36f" stroke-width="1"/>
          <line id="直线_28" data-name="直线 28" x2="16.029" transform="translate(0.558)" fill="none" stroke="#ff9c00" stroke-width="1"/>
          <path id="路径_71" data-name="路径 71" d="M0,0" transform="translate(0 4.018) rotate(-45)" fill="none" stroke="#36f" stroke-width="1"/>
        </g>
      </g>
      <path id="路径_209" data-name="路径 209" d="M6.009,5.781H2.224A2.287,2.287,0,0,0,.6,6.356,3.7,3.7,0,0,0,0,8.29V34.079a3.1,3.1,0,0,0,.6,1.754,2.376,2.376,0,0,0,1.628.475l16.057.106" transform="translate(28.702 283.796)" fill="none" stroke="#36f" stroke-width="1"/>
    </g>
    <g id="组_181" data-name="组 181" transform="translate(-124.709 645.295)">
      <g id="椭圆_6" data-name="椭圆 6" transform="translate(173.194 175.534)" fill="none" stroke="#36f" stroke-width="1">
        <ellipse cx="3.896" cy="3.571" rx="3.896" ry="3.571" stroke="none"/>
        <ellipse cx="3.896" cy="3.571" rx="3.396" ry="3.071" fill="none"/>
      </g>
      <g id="路径_6" data-name="路径 6" transform="translate(168 183.682)" fill="none">
        <path d="M9.027,7.2c4.986,0,9.027-1.908,9.027-4.262,0-1.631-1.867-3.036-5.161-3.635C11.927-.939,10.558.763,9.027.763c-.8,0-2.8-1.589-3.846-1.456C1.623-.25,0,.967,0,2.942,0,5.3,4.042,7.2,9.027,7.2Z" stroke="none"/>
        <path d="M 9.027431488037109 6.204007148742676 C 11.29416179656982 6.204007148742676 13.40952110290527 5.794647216796875 14.98384189605713 5.051336765289307 C 16.2806510925293 4.439056873321533 17.05486106872559 3.65041708946228 17.05486106872559 2.941736936569214 C 17.05486106872559 1.827746987342834 15.31086158752441 0.7624170184135437 12.71514129638672 0.290787011384964 L 12.67915630340576 0.2841302454471588 C 12.49767398834229 0.3101292252540588 12.02621555328369 0.5947880148887634 11.7410717010498 0.7669469714164734 C 11.0062313079834 1.21062695980072 10.09169101715088 1.762796998023987 9.027431488037109 1.762796998023987 C 8.426971435546875 1.762796998023987 7.792231559753418 1.4288569688797 6.988621711730957 1.00607705116272 C 6.485921382904053 0.7415969967842102 5.644551277160645 0.2989470064640045 5.311571598052979 0.2989470064640045 L 5.304621696472168 0.2992269992828369 C 3.717101573944092 0.4969469904899597 2.550331592559814 0.8552070260047913 1.836701512336731 1.364076972007751 C 1.258051514625549 1.776697039604187 1.000001430511475 2.263267040252686 1.000001430511475 2.941736936569214 C 1.000001430511475 3.65041708946228 1.774211525917053 4.439056873321533 3.071021556854248 5.051336765289307 C 4.645341396331787 5.794647216796875 6.760701656341553 6.204007148742676 9.027431488037109 6.204007148742676 M 9.027431488037109 7.204007148742676 C 4.041721343994141 7.204007148742676 1.48803712818335e-06 5.295716762542725 1.48803712818335e-06 2.941736936569214 C 1.48803712818335e-06 0.9667369723320007 1.622621536254883 -0.2499330043792725 5.181031703948975 -0.693103015422821 C 6.22407341003418 -0.8264822959899902 8.2247314453125 0.7627969980239868 9.027431488037109 0.7627969980239868 C 10.55804061889648 0.762796938419342 11.92651557922363 -0.939473032951355 12.89391136169434 -0.693103015422821 C 16.1876220703125 -0.09465300291776657 18.05486106872559 1.310426950454712 18.05486106872559 2.941736936569214 C 18.05486106872559 5.295716762542725 14.01314163208008 7.204007148742676 9.027431488037109 7.204007148742676 Z" stroke="none" fill="#36f"/>
      </g>
    </g>
  </g>
</svg>
